<svg width="150" height="48" viewBox="0 0 150 48" fill="none" xmlns="http://www.w3.org/2000/svg">
<path d="M61.1465 7.98096H63.3399V23.2973H72.6054V24.0726H61.1465V7.98096Z" fill="white"/>
<path d="M77.0869 24.072V7.96143H88.5647V8.77452H79.3182V14.1825H85.8985V14.9578H79.3182V23.2967H88.5647V24.072H77.0869Z" fill="white"/>
<path d="M90.9854 7.98022H93.1788L98.6057 21.3868L104.033 7.98022H104.884L98.3221 24.0719H97.4712L90.9854 7.98022Z" fill="white"/>
<path d="M108.098 24.072V7.96143H119.575V8.77452H110.329V14.1825H116.909V14.9578H110.329V23.2967H119.575V24.072H108.098Z" fill="white"/>
<path d="M124.076 7.98022H126.289V23.2966H135.535V24.0719H124.076V7.98022Z" fill="white"/>
<path d="M61.1465 46.8386V30.728H72.6243V31.5411H63.3778V36.9491H69.9581V37.7244H63.3778V46.0633H72.6243V46.8386H61.1465Z" fill="white"/>
<path d="M86.957 34.1883L86.2573 34.264C86.2573 33.7156 86.125 33.224 85.898 32.8269C85.6522 32.4298 85.3308 32.0705 84.9148 31.8058C84.4988 31.5222 84.026 31.3142 83.4966 31.1818C82.9671 31.0494 82.4188 30.9738 81.8704 30.9738C81.1897 30.9738 80.5846 31.0494 80.0362 31.2196C79.4879 31.3898 79.0151 31.5978 78.618 31.8436C78.2209 32.1084 77.9184 32.4109 77.7293 32.7702C77.5213 33.1294 77.4268 33.4887 77.4268 33.8669C77.4457 34.5665 77.6726 35.1149 78.1453 35.5498C78.5991 35.9847 79.1853 36.3629 79.885 36.6843C80.5846 37.0058 81.341 37.3084 82.154 37.6109C82.9671 37.8945 83.7235 38.2538 84.4231 38.6698C85.1228 39.0858 85.709 39.5964 86.2006 40.2204C86.6922 40.8444 86.938 41.6385 86.9759 42.6218C87.0137 43.2269 86.9002 43.832 86.6355 44.3993C86.3897 44.9665 86.0115 45.4771 85.501 45.912C85.0093 46.3469 84.3853 46.7062 83.629 46.952C82.8915 47.2167 82.0217 47.3491 81.0573 47.3491C80.3955 47.3491 79.7526 47.2735 79.1097 47.1033C78.4668 46.9331 77.9184 46.7062 77.4268 46.3847C76.9351 46.0633 76.538 45.6473 76.2355 45.1745C75.933 44.6829 75.7817 44.0967 75.7817 43.4349L76.4246 43.3593C76.4246 43.9076 76.557 44.3993 76.8028 44.8153C77.0486 45.2313 77.3889 45.5716 77.8049 45.8553C78.2209 46.1389 78.6937 46.3469 79.2042 46.4793C79.7337 46.6116 80.2631 46.6873 80.8115 46.6873C81.4922 46.6873 82.0973 46.6116 82.6457 46.4415C83.194 46.2713 83.6668 46.0633 84.0639 45.7796C84.4609 45.496 84.7635 45.1934 84.9715 44.8153C85.1795 44.456 85.293 44.0778 85.293 43.6996C85.293 43.1702 85.1606 42.6974 84.8959 42.3382C84.6311 41.96 84.2719 41.6385 83.818 41.3549C83.3642 41.0713 82.8726 40.8254 82.3053 40.5985C81.738 40.3716 81.1708 40.1447 80.5846 39.9178C79.9984 39.6909 79.4122 39.4262 78.8449 39.1614C78.2777 38.8778 77.7671 38.5564 77.3322 38.1782C76.8784 37.8 76.5191 37.3462 76.2355 36.8167C75.9519 36.2873 75.8006 35.6633 75.7628 34.9258C75.7439 34.3207 75.8573 33.7534 76.1031 33.1862C76.3489 32.6189 76.7271 32.1273 77.2188 31.7113C77.7104 31.2763 78.3344 30.936 79.0908 30.6713C79.8282 30.4065 80.698 30.2742 81.6624 30.2742C82.3431 30.2742 82.986 30.3498 83.61 30.52C84.234 30.6902 84.8013 30.9171 85.293 31.2385C85.7846 31.56 86.1817 31.976 86.4842 32.4487C86.8057 32.9404 86.957 33.5076 86.957 34.1883Z" fill="white"/>
<path d="M90.5312 31.5411V30.728H104.732V31.5411H98.7567V46.8386H96.5443V31.5411H90.5312Z" fill="white"/>
<path d="M106.358 46.8386L112.201 32.392L111.54 30.728H113.771L120.276 46.8386H118.063L116.191 42.2815H109.062L107.209 46.8386H106.358ZM109.365 41.5062H115.908L112.636 33.4509L109.365 41.5062Z" fill="white"/>
<path d="M121.92 31.5411V30.728H136.121V31.5411H130.145V46.8386H127.933V31.5411H121.92Z" fill="white"/>
<path d="M138.522 46.8386V30.728H150V31.5411H140.754V36.9491H147.334V37.7244H140.754V46.0633H150V46.8386H138.522Z" fill="white"/>
<path d="M47.3236 37.6866L37.6611 29.7258L43.4662 12.84V12.8211C43.4662 12.7833 43.4851 12.7644 43.4851 12.7266C43.4851 12.7076 43.4851 12.7077 43.4851 12.6887C43.4851 12.6509 43.4851 12.6131 43.4851 12.5753V12.5564C43.4851 12.5186 43.4851 12.4997 43.4662 12.4618C43.4662 12.4429 43.4662 12.4429 43.4473 12.424C43.4473 12.4051 43.4284 12.3673 43.4094 12.3484C43.4094 12.3295 43.4094 12.3295 43.3905 12.3106C43.3716 12.2727 43.3527 12.2349 43.3338 12.216C43.3338 12.216 43.3338 12.216 43.3149 12.1971C43.296 12.1782 43.2771 12.1404 43.2393 12.1215C43.2393 12.1215 43.2204 12.1026 43.2014 12.1026C43.1825 12.0836 43.1636 12.0647 43.1258 12.0458C43.1069 12.0458 43.1069 12.0269 43.088 12.0269C43.0502 12.008 43.0124 11.9891 42.9934 11.9702L9.82689 0.0385495C9.61889 -0.037087 9.39198 0.000731255 9.20289 0.133095C9.03271 0.265459 8.91925 0.473459 8.93816 0.700368L9.8458 27.8728L0.372341 32.4866C0.050886 32.6378 -0.0814771 33.0349 0.0508865 33.3564L6.38543 47.5193C6.49889 47.7651 6.7258 47.9164 6.99053 47.9164H46.8887C47.248 47.9164 47.5505 47.6139 47.5505 47.2546V38.1782C47.5505 37.9891 47.4749 37.8 47.3236 37.6866ZM27.6393 46.6117V38.3862L36.8858 30.8226L44.6574 37.2328L36.2807 46.6306H27.6393V46.6117ZM41.6887 13.9178L36.2996 29.5557L33.2742 32.0328C35.5054 25.6604 38.4553 17.3404 39.4196 15.0146L41.6887 13.9178ZM13.8167 26.0197L13.0793 2.6291L15.0269 3.32873C15.008 3.36655 15.008 3.40437 15.008 3.44219V11.0247C15.008 11.176 15.1214 11.2895 15.2727 11.2895C15.424 11.2895 15.5374 11.176 15.5374 11.0247V3.51782L41.1404 12.7266L13.8167 26.0197ZM12.5498 2.44001L13.3062 26.2844L11.264 27.2866L10.4131 1.66473L12.5498 2.44001ZM1.60143 33.432L10.8858 28.9128C10.8858 28.9128 10.9047 28.9128 10.9047 28.8938L38.72 15.3549C38.2094 16.6029 37.3207 19.0422 35.6189 23.7884C34.2953 27.4946 32.9905 31.2386 32.4989 32.6757L26.5425 37.5542C26.3913 37.6866 26.2967 37.8757 26.2967 38.0648V46.6117H7.50107L1.60143 33.432ZM36.9804 46.6117L45.0545 37.5542L46.2269 38.5186V38.8211L42.7854 42.7542C42.6909 42.8677 42.6909 43.0379 42.8044 43.1324C42.8611 43.1702 42.9178 43.1891 42.9745 43.1891C43.0502 43.1891 43.1258 43.1513 43.1825 43.0946L46.2269 39.6153V46.6117H36.9804Z" fill="white"/>
</svg>
