<svg width="464" height="313" viewBox="0 0 464 313" fill="none" xmlns="http://www.w3.org/2000/svg">
<path d="M385.999 241.458L324.224 190.453L361.337 82.2659V82.1447C361.337 81.9024 361.458 81.7812 361.458 81.5389C361.458 81.4178 361.458 81.4178 361.458 81.2967C361.458 81.0544 361.458 80.812 361.458 80.5697V80.4486C361.458 80.2063 361.458 80.0852 361.337 79.8429C361.337 79.7217 361.337 79.7217 361.216 79.6005C361.216 79.4794 361.095 79.2371 360.974 79.1159C360.974 78.9948 360.974 78.9948 360.854 78.8737C360.733 78.6314 360.612 78.389 360.491 78.2679C360.491 78.2679 360.491 78.2679 360.37 78.1467C360.249 78.0256 360.128 77.7833 359.886 77.6621C359.886 77.6621 359.766 77.541 359.645 77.541C359.524 77.4198 359.403 77.2987 359.161 77.1775C359.04 77.1775 359.04 77.0564 358.919 77.0564C358.677 76.9352 358.436 76.8141 358.315 76.6929L146.274 0.246986C144.945 -0.237616 143.494 0.00468514 142.285 0.852738C141.197 1.70079 140.472 3.03345 140.593 4.48725L146.395 178.581L85.8297 208.141C83.7745 209.11 82.9283 211.655 83.7745 213.714L124.273 304.456C124.998 306.031 126.449 307 128.141 307H383.218C385.515 307 387.449 305.062 387.449 302.76V244.607C387.449 243.396 386.966 242.184 385.999 241.458ZM260.152 298.641V245.94L319.267 197.48L368.953 238.55L315.399 298.762H260.152V298.641ZM349.973 89.1715L315.52 189.363L296.178 205.234C310.443 164.406 329.301 111.1 335.467 96.1982L349.973 89.1715ZM171.782 166.708L167.067 16.8446L179.519 21.3272C179.398 21.5695 179.398 21.8118 179.398 22.0541V70.6354C179.398 71.6046 180.124 72.3315 181.091 72.3315C182.058 72.3315 182.783 71.6046 182.783 70.6354V22.5387L346.468 81.5389L171.782 166.708ZM163.683 15.6331L168.518 168.404L155.462 174.825L150.022 10.6659L163.683 15.6331ZM93.6875 214.199L153.044 185.244C153.044 185.244 153.165 185.244 153.165 185.123L330.994 98.3789C327.73 106.375 322.048 122.003 311.168 152.412C302.706 176.157 294.364 200.145 291.221 209.353L253.141 240.61C252.174 241.458 251.569 242.669 251.569 243.881V298.641H131.405L93.6875 214.199ZM319.872 298.641L371.492 240.61L378.987 246.788V248.727L356.985 273.926C356.381 274.653 356.381 275.743 357.106 276.349C357.469 276.591 357.831 276.712 358.194 276.712C358.677 276.712 359.161 276.47 359.524 276.107L378.987 253.815V298.641H319.872Z" fill="#6B6663" fill-opacity="0.06"/>
<path d="M137.65 230.95C138.117 230.95 138.467 231.767 138.7 233.4C139.167 234.8 139.4 236.433 139.4 238.3C139.4 240.167 139.167 241.917 138.7 243.55C138.467 244.95 138.117 245.65 137.65 245.65C129.95 245.183 119.567 244.717 106.5 244.25V301.3C106.5 303.867 105.567 305.5 103.7 306.2L92.5 311.8C91.1 312.267 90.4 312.5 90.4 312.5C89.7 312.5 89.35 311.567 89.35 309.7V243.9C74.65 243.433 45.95 243.2 3.25 243.2C2.08333 243.2 1.15 242.733 0.45 241.8C-0.25 240.867 -0.133333 239.933 0.8 239L101.25 107.4C101.717 106.933 102.417 106.7 103.35 106.7C104.05 106.7 104.75 106.933 105.45 107.4C106.15 107.633 106.5 108.1 106.5 108.8V231.65C112.333 231.65 122.717 231.417 137.65 230.95ZM19.35 233.05C40.35 233.05 63.6833 232.817 89.35 232.35V136.8L17.6 230.6C16.9 231.3 16.6667 231.883 16.9 232.35C17.3667 232.817 18.1833 233.05 19.35 233.05Z" fill="#8A4721"/>
<path d="M235.018 250.55C221.485 250.55 209.235 247.4 198.268 241.1C187.535 234.8 179.135 226.167 173.068 215.2C167.002 204 163.968 191.4 163.968 177.4C163.968 163.633 167.002 151.383 173.068 140.65C179.135 129.917 187.535 121.517 198.268 115.45C209.235 109.383 221.602 106.35 235.368 106.35C248.902 106.35 260.918 109.5 271.418 115.8C281.918 121.867 290.085 130.383 295.918 141.35C301.985 152.317 305.018 164.683 305.018 178.45C305.018 192.217 301.985 204.583 295.918 215.55C290.085 226.517 281.802 235.15 271.068 241.45C260.568 247.517 248.552 250.55 235.018 250.55ZM238.868 246.35C253.802 246.35 265.002 240.633 272.468 229.2C280.168 217.767 284.018 202.25 284.018 182.65C284.018 159.317 279.002 141.467 268.968 129.1C258.935 116.733 246.452 110.55 231.518 110.55C216.818 110.55 205.268 116.5 196.868 128.4C188.702 140.3 184.618 155.7 184.618 174.6C184.618 188.133 186.835 200.383 191.268 211.35C195.702 222.317 202.002 230.95 210.168 237.25C218.335 243.317 227.902 246.35 238.868 246.35Z" fill="#8A4721"/>
<path d="M462.015 230.95C462.482 230.95 462.832 231.767 463.065 233.4C463.532 234.8 463.765 236.433 463.765 238.3C463.765 240.167 463.532 241.917 463.065 243.55C462.832 244.95 462.482 245.65 462.015 245.65C454.315 245.183 443.932 244.717 430.865 244.25V301.3C430.865 303.867 429.932 305.5 428.065 306.2L416.865 311.8C415.465 312.267 414.765 312.5 414.765 312.5C414.065 312.5 413.715 311.567 413.715 309.7V243.9C399.015 243.433 370.315 243.2 327.615 243.2C326.449 243.2 325.515 242.733 324.815 241.8C324.115 240.867 324.232 239.933 325.165 239L425.615 107.4C426.082 106.933 426.782 106.7 427.715 106.7C428.415 106.7 429.115 106.933 429.815 107.4C430.515 107.633 430.865 108.1 430.865 108.8V231.65C436.699 231.65 447.082 231.417 462.015 230.95ZM343.715 233.05C364.715 233.05 388.049 232.817 413.715 232.35V136.8L341.965 230.6C341.265 231.3 341.032 231.883 341.265 232.35C341.732 232.817 342.549 233.05 343.715 233.05Z" fill="#8A4721"/>
</svg>
