<?xml version="1.0" encoding="utf-8"?><svg xmlns="http://www.w3.org/2000/svg" xmlns:xlink="http://www.w3.org/1999/xlink"><symbol viewBox="0 0 26 20" id="bad" xmlns="http://www.w3.org/2000/svg"><path d="M26 9.69h-1.525v-6.1h-3.591A10.41 10.41 0 0013 0a10.41 10.41 0 00-7.884 3.591H1.525V9.69H0v8.13h1.525v1.524h1.523V17.82h19.904v1.524h1.523V17.82H26V9.69zM3.048 5.114h2.786l.228-.282A8.897 8.897 0 0113 1.523a8.897 8.897 0 016.938 3.31l.228.281h2.786V9.69h-1.526v-.06a2.994 2.994 0 00-2.991-2.99h-3.206c-.885 0-1.68.386-2.23.999a2.984 2.984 0 00-2.228-1H7.565A2.995 2.995 0 004.574 9.63v.059H3.048V5.114zm9.19 4.576h-6.14v-.06c0-.809.658-1.467 1.467-1.467h3.206c.809 0 1.467.658 1.467 1.467v.059zm7.665 0h-6.141v-.06c0-.809.658-1.467 1.467-1.467h3.206c.81 0 1.468.658 1.468 1.467v.059zm4.574 6.606H1.523v-5.083h22.954v5.083z"/></symbol><symbol viewBox="0 0 12 7" id="chveron-down" xmlns="http://www.w3.org/2000/svg"><path d="M1 1l5 5 5-5"/></symbol><symbol viewBox="0 0 10 16" id="chveron-left" xmlns="http://www.w3.org/2000/svg"><path d="M8.552 0L.237 8l8.315 8 .782-1.17L2.236 8l7.098-6.83L8.552 0z"/></symbol><symbol viewBox="0 0 10 16" id="chveron-right" xmlns="http://www.w3.org/2000/svg"><path d="M1.448 16l8.315-8-8.315-8-.782 1.17L7.764 8 .666 14.83 1.448 16z"/></symbol><symbol viewBox="0 0 12 12" id="cross" xmlns="http://www.w3.org/2000/svg"><path d="M12 .707L11.293 0 6 5.293.707 0 0 .707 5.293 6 0 11.293.707 12 6 6.707 11.293 12l.707-.707L6.707 6 12 .707z"/></symbol><symbol viewBox="0 0 22 21" id="house" xmlns="http://www.w3.org/2000/svg"><path d="M17.668 7.436v11.027H4.333V7.436H2.795v11.796c0 .425.344.77.77.77h14.872a.77.77 0 00.77-.77V7.436h-1.54z"/><path d="M11.512.195a.769.769 0 00-1.024 0L0 9.555l1.024 1.148L11 1.8l9.976 8.903L22 9.555 11.512.195z"/></symbol><symbol viewBox="0 0 22 20" id="star" xmlns="http://www.w3.org/2000/svg"><path d="M11 1.523l2.114 6.081.114.33.348.006 6.437.131-5.13 3.89-.278.21.101.334 1.864 6.162-5.284-3.677-.286-.2-.286.2-5.285 3.677 1.865-6.163.1-.333-.277-.21-5.13-3.89 6.437-.13.348-.008.114-.329L11 1.523z"/></symbol><symbol viewBox="0 0 22 22" id="tel" xmlns="http://www.w3.org/2000/svg"><path d="M0 18.541l3.457 3.457a18.48 18.48 0 0013.113-5.43A18.482 18.482 0 0022 3.463L18.54.003l-4.723 4.721 3.08 3.08a9.067 9.067 0 01-2.665 6.428A9.067 9.067 0 017.8 16.896L4.722 13.82 0 18.541z"/></symbol><symbol viewBox="0 0 20 16" id="telegram" xmlns="http://www.w3.org/2000/svg"><path fill-rule="evenodd" clip-rule="evenodd" d="M14.711 15.715c1.09.476 1.498-.522 1.498-.522L19.09.714c-.023-.976-1.339-.386-1.339-.386L1.617 6.66s-.772.272-.704.749c.069.476.681.703.681.703l4.062 1.362s1.226 4.017 1.475 4.788c.227.75.432.772.432.772.227.09.43-.068.43-.068l2.633-2.383 4.085 3.132zm.704-12.437s.567-.34.545 0c0 0 .09.046-.205.363-.272.273-6.694 6.037-7.557 6.809a.238.238 0 00-.113.204l-.25 2.133c-.045.227-.34.25-.408.045L6.36 9.338a.334.334 0 01.136-.386l8.919-5.674z"/></symbol><symbol viewBox="0 0 20 22" id="tree" xmlns="http://www.w3.org/2000/svg"><path d="M16.455 7.594c.03-.254.045-.489.045-.719A6.883 6.883 0 009.625 0C5.967 0 2.968 2.87 2.768 6.558 1.051 7.703 0 9.634 0 11.688a6.194 6.194 0 006.187 6.187h2.75V22h1.376v-4.125h3.437c3.033 0 5.5-2.467 5.5-5.5a5.501 5.501 0 00-2.795-4.781zM13.75 16.5h-3.438V6.875H8.938v4.903L5.88 9.74l-.762 1.144 3.819 2.546v3.07h-2.75a4.818 4.818 0 01-4.813-4.813c0-1.719.903-3.27 2.415-4.146.218-.127.342-.414.335-.666 0-3.033 2.467-5.5 5.5-5.5s5.5 2.467 5.5 5.5c0 .293-.032.606-.1.986a.688.688 0 00.397.75 4.127 4.127 0 012.453 3.764A4.13 4.13 0 0113.75 16.5z"/></symbol><symbol viewBox="0 0 20 21" id="viber" xmlns="http://www.w3.org/2000/svg"><path d="M17.625 2.147c-.515-.474-2.6-1.99-7.248-2.01 0 0-5.479-.333-8.15 2.118C.742 3.742.218 5.914.164 8.614.11 11.31.04 16.364 4.911 17.735h.004l-.004 2.09s-.03.847.527 1.017c.673.208 1.072-.436 1.716-1.13.353-.382.839-.938 1.209-1.366 3.33.278 5.894-.361 6.184-.457.673-.22 4.482-.706 5.101-5.761.64-5.2-.311-8.494-2.023-9.981zm.565 9.615c-.523 4.22-3.61 4.486-4.179 4.67-.24.078-2.492.639-5.324.452 0 0-2.11 2.546-2.767 3.206-.104.104-.224.146-.303.125-.112-.029-.145-.162-.141-.357 0-.283.016-3.477.016-3.477-.004 0-.004 0 0 0-4.124-1.142-3.883-5.445-3.838-7.697.046-2.25.47-4.1 1.728-5.341 2.256-2.044 6.912-1.74 6.912-1.74 3.93.016 5.811 1.2 6.247 1.594 1.45 1.247 2.19 4.216 1.65 8.565z"/><path d="M12.292 8.763a.264.264 0 01-.261-.249c-.046-.893-.466-1.329-1.321-1.375a.264.264 0 01.029-.527c1.13.062 1.76.71 1.819 1.873a.258.258 0 01-.25.274c-.008.004-.012.004-.016.004z"/><path d="M13.638 9.212h-.004a.264.264 0 01-.258-.27c.02-.897-.237-1.624-.785-2.222-.544-.598-1.296-.922-2.289-.993a.261.261 0 01-.24-.282.261.261 0 01.282-.241c1.122.083 2.006.473 2.638 1.163.635.694.942 1.562.922 2.588a.266.266 0 01-.266.257z"/><path d="M15.016 9.752a.26.26 0 01-.261-.262c-.013-1.607-.474-2.833-1.413-3.75-.926-.906-2.101-1.367-3.485-1.38a.264.264 0 010-.527c1.525.012 2.82.523 3.847 1.528 1.03 1.006 1.557 2.393 1.574 4.12a.26.26 0 01-.262.27c.004 0 .004 0 0 0zm-4.244 2.264s.37.033.569-.212l.386-.486c.187-.241.64-.395 1.08-.15.245.137.69.412.964.615.295.216.893.714.897.719.287.24.353.593.158.971v.009c-.2.353-.47.685-.806.993-.004 0-.004.004-.008.004-.279.232-.553.365-.819.394-.033.009-.07.009-.12.009a1.13 1.13 0 01-.349-.054l-.008-.013c-.416-.116-1.105-.407-2.252-1.042a13.362 13.362 0 01-1.894-1.25 9.7 9.7 0 01-.851-.757l-.03-.029-.028-.029-.03-.029-.028-.029a10.25 10.25 0 01-.756-.851 13.136 13.136 0 01-1.25-1.895c-.636-1.15-.927-1.84-1.043-2.25l-.013-.01a1.132 1.132 0 01-.054-.348c0-.05 0-.087.009-.12.033-.27.166-.54.394-.819 0-.004.004-.004.004-.008a4 4 0 01.993-.806h.008c.374-.195.727-.129.972.158 0 0 .503.602.719.897.203.278.478.719.615.964.245.44.091.893-.15 1.08l-.486.386c-.245.2-.212.57-.212.57s.719 2.732 3.419 3.418z"/></symbol><symbol viewBox="0 0 20 20" id="whatsup" xmlns="http://www.w3.org/2000/svg"><path d="M17.113 3.666C15.36 1.859 12.933.879 10.456.879c-5.264 0-9.495 4.283-9.444 9.495 0 1.652.465 3.252 1.239 4.696L.909 19.973l5.006-1.29c1.393.774 2.942 1.135 4.49 1.135 5.212 0 9.444-4.283 9.444-9.495 0-2.529-.98-4.903-2.736-6.657zm-6.657 14.552c-1.393 0-2.786-.36-3.973-1.083l-.31-.155-2.993.774.774-2.942-.206-.31C1.477 10.84 2.56 5.989 6.276 3.718c3.716-2.27 8.515-1.187 10.786 2.529 2.27 3.716 1.187 8.515-2.529 10.786-1.187.774-2.632 1.186-4.077 1.186zm4.542-5.728l-.568-.258s-.826-.361-1.342-.62c-.051 0-.103-.05-.155-.05a.745.745 0 00-.36.103s-.053.051-.775.877a.284.284 0 01-.258.155h-.052a.391.391 0 01-.206-.103l-.258-.104c-.568-.258-1.084-.567-1.497-.98-.103-.104-.258-.207-.36-.31-.362-.361-.723-.774-.981-1.238l-.052-.104c-.052-.051-.052-.103-.103-.206 0-.103 0-.207.051-.258 0 0 .207-.258.362-.413.103-.103.154-.258.258-.361.103-.155.155-.361.103-.516-.052-.258-.671-1.652-.826-1.961-.103-.155-.206-.207-.361-.258H7.05c-.103 0-.206.051-.31.051l-.051.052c-.103.051-.206.155-.31.206-.103.104-.154.207-.258.31a2.632 2.632 0 00-.567 1.6c0 .413.103.825.258 1.187l.051.154a8.598 8.598 0 001.91 2.632l.206.207c.155.155.31.258.413.413a9.22 9.22 0 003.716 1.96c.154.052.36.052.516.104h.516c.258 0 .567-.103.774-.206.155-.104.258-.104.361-.207l.103-.103c.104-.103.207-.155.31-.258.103-.103.206-.207.258-.31.103-.206.155-.464.206-.722v-.361s-.051-.052-.154-.104z"/></symbol></svg>