<svg width="26" height="20" viewBox="0 0 26 20" fill="none" xmlns="http://www.w3.org/2000/svg">
<path d="M26 9.68957H24.4753V3.59095H20.8839C18.8945 1.30411 16.0419 0 13 0C9.9581 0 7.10552 1.30411 5.11606 3.59095H1.52466V9.68957H0V17.8199H1.52466V19.3445H3.04809V17.8199H22.9519V19.3445H24.4753V17.8199H26V9.68957ZM3.04809 5.11438H5.83385L6.06247 4.83245C7.76796 2.72954 10.2966 1.52344 13 1.52344C15.7034 1.52344 18.232 2.72954 19.9375 4.83245L20.1661 5.11438H22.9519V9.68957H21.426V9.63138C21.426 7.98205 20.0842 6.64026 18.4349 6.64026H15.2293C14.3442 6.64026 13.5481 7.02701 12.9999 7.64004C12.4518 7.02701 11.6556 6.64026 10.7706 6.64026H7.56509C5.91576 6.64026 4.57397 7.9821 4.57397 9.63138V9.68957H3.04809V5.11438ZM12.2383 9.68957H6.09741V9.63138C6.09741 8.82207 6.75578 8.1637 7.56509 8.1637H10.7706C11.5799 8.1637 12.2382 8.82213 12.2382 9.63138V9.68957H12.2383ZM19.9026 9.68957H13.7617V9.63138C13.7617 8.82207 14.4201 8.1637 15.2294 8.1637H18.4349C19.2442 8.1637 19.9026 8.82213 19.9026 9.63138V9.68957ZM24.4766 16.2964H1.52344V11.213H24.4766V16.2964Z" fill="#6B6663"/>
</svg>
