<svg width="20" height="16" viewBox="0 0 20 16" fill="none" xmlns="http://www.w3.org/2000/svg">
<path fill-rule="evenodd" clip-rule="evenodd" d="M14.7111 15.7146C15.8004 16.1912 16.2089 15.1927 16.2089 15.1927L19.091 0.714184C19.0683 -0.261641 17.7521 0.328392 17.7521 0.328392L1.61694 6.6599C1.61694 6.6599 0.845353 6.93223 0.913434 7.40879C0.981515 7.88536 1.59424 8.11229 1.59424 8.11229L5.65639 9.47391C5.65639 9.47391 6.88185 13.4907 7.13148 14.2623C7.35841 15.0111 7.56265 15.0338 7.56265 15.0338C7.78959 15.1246 7.99383 14.9658 7.99383 14.9658L10.6263 12.5829L14.7111 15.7146ZM15.4149 3.27838C15.4149 3.27838 15.9822 2.93798 15.9595 3.27838C15.9595 3.27838 16.0503 3.32377 15.7553 3.64148C15.483 3.9138 9.06067 9.67797 8.19832 10.4496C8.13024 10.4949 8.08485 10.563 8.08485 10.6538L7.83522 12.787C7.78983 13.0139 7.49482 13.0366 7.42674 12.8324L6.36014 9.33757C6.31475 9.2014 6.36014 9.04255 6.4963 8.95178L15.4149 3.27838Z" fill="white"/>
</svg>
