<svg width="20" height="22" viewBox="0 0 20 22" fill="none" xmlns="http://www.w3.org/2000/svg">
<path d="M16.455 7.59404C16.4852 7.34026 16.5 7.10525 16.5 6.87499C16.5 3.08434 13.4157 0 9.62501 0C5.96727 0 2.96821 2.87015 2.76815 6.5581C1.05141 7.70348 0 9.6344 0 11.6875C0 15.0995 2.77549 17.875 6.18749 17.875H8.93747V22H10.3125V17.875H13.75C16.7827 17.875 19.25 15.4076 19.25 12.375C19.25 10.387 18.1691 8.56352 16.455 7.59404ZM13.75 16.5H10.3125V6.87499H8.93752V11.7779L5.88134 9.74049L5.11866 10.8845L8.93752 13.4304V16.5H6.18754C3.53422 16.5 1.37503 14.3408 1.37503 11.6874C1.37503 9.96802 2.27806 8.41778 3.79 7.54097C4.00753 7.41405 4.13175 7.12672 4.12501 6.87494C4.12501 3.84228 6.59235 1.37494 9.62501 1.37494C12.6577 1.37494 15.125 3.84228 15.125 6.87494C15.125 7.16766 15.0928 7.4812 15.0243 7.86055C14.9679 8.17209 15.1324 8.48224 15.4218 8.61115C16.9122 9.27383 17.875 10.7515 17.875 12.3749C17.875 14.6496 16.0246 16.5 13.75 16.5Z" fill="#6B6663"/>
</svg>
