<svg width="20" height="21" viewBox="0 0 20 21" fill="none" xmlns="http://www.w3.org/2000/svg">
<path d="M17.6252 2.1466C17.1102 1.67308 15.025 0.156985 10.3771 0.136217C10.3771 0.136217 4.89839 -0.196077 2.22757 2.25459C0.740557 3.74161 0.217194 5.91398 0.163196 8.61387C0.109199 11.3096 0.0385859 16.3646 4.91085 17.7353H4.915L4.91085 19.8246C4.91085 19.8246 4.88177 20.672 5.43836 20.8423C6.11126 21.05 6.51001 20.4062 7.15383 19.7125C7.50689 19.3304 7.99287 18.7738 8.36255 18.3459C11.6938 18.6242 14.2566 17.9846 14.5474 17.889C15.2203 17.6689 19.0292 17.1829 19.6481 12.1279C20.2878 6.92748 19.3366 3.63361 17.6252 2.1466ZM18.1901 11.7624C17.6668 15.9825 14.5806 16.2483 14.0115 16.4311C13.7706 16.51 11.5193 17.0708 8.68654 16.8838C8.68654 16.8838 6.57647 19.43 5.92019 20.0905C5.81635 20.1943 5.69589 20.2359 5.61697 20.2151C5.50482 20.186 5.47159 20.0531 5.47575 19.8579C5.47575 19.5754 5.49236 16.3812 5.49236 16.3812C5.48821 16.3812 5.48821 16.3812 5.49236 16.3812C1.36776 15.239 1.60868 10.9358 1.65437 8.68448C1.70006 6.43319 2.12373 4.5848 3.38229 3.34285C5.63774 1.29925 10.294 1.60246 10.294 1.60246C14.2234 1.61908 16.105 2.80288 16.5411 3.19748C17.9908 4.44358 18.7301 7.41346 18.1901 11.7624Z" fill="white"/>
<path d="M12.2922 8.76336C12.1551 8.76336 12.0388 8.65537 12.0305 8.51414C11.9848 7.6211 11.5653 7.18497 10.7096 7.13928C10.5642 7.13097 10.4521 7.00636 10.4604 6.86098C10.4687 6.7156 10.5933 6.60345 10.7387 6.61176C11.8685 6.67407 12.4999 7.32204 12.558 8.48507C12.5663 8.63044 12.4542 8.75505 12.3088 8.75921C12.3005 8.76336 12.2963 8.76336 12.2922 8.76336Z" fill="white"/>
<path d="M13.6378 9.21216H13.6337C13.4883 9.208 13.372 9.08755 13.3762 8.94217C13.3969 8.04497 13.1394 7.31808 12.5911 6.71995C12.047 6.12182 11.2952 5.79784 10.3024 5.72722C10.1571 5.71476 10.0491 5.59015 10.0615 5.44477C10.074 5.29939 10.1986 5.1914 10.344 5.20386C11.4655 5.28693 12.3502 5.67738 12.9816 6.36689C13.6171 7.06055 13.9244 7.92867 13.9037 8.95463C13.8995 9.10001 13.7791 9.21216 13.6378 9.21216Z" fill="white"/>
<path d="M15.0163 9.75175C14.8709 9.75175 14.7546 9.63545 14.7546 9.49007C14.7421 7.8826 14.281 6.65726 13.3423 5.7393C12.416 4.8338 11.2406 4.37274 9.85738 4.36028C9.71201 4.36028 9.5957 4.23982 9.5957 4.09445C9.5957 3.94907 9.71616 3.83276 9.85738 3.83276C11.3818 3.84522 12.6777 4.35613 13.7037 5.36132C14.7338 6.36651 15.2613 7.75383 15.2779 9.48176C15.2821 9.63129 15.1658 9.75175 15.0163 9.75175C15.0204 9.75175 15.0204 9.75175 15.0163 9.75175Z" fill="white"/>
<path d="M10.7718 12.0156C10.7718 12.0156 11.1415 12.0488 11.3409 11.8038L11.7272 11.3178C11.9141 11.0769 12.3668 10.9232 12.8071 11.1682C13.0522 11.3053 13.4966 11.5795 13.7708 11.783C14.0657 11.999 14.6638 12.4974 14.668 12.5016C14.9546 12.7425 15.021 13.0955 14.8258 13.4735C14.8258 13.4735 14.8258 13.4777 14.8258 13.4818C14.6264 13.8349 14.3564 14.1672 14.02 14.4746C14.0158 14.4746 14.0158 14.4787 14.0117 14.4787C13.7334 14.7113 13.4592 14.8442 13.1934 14.8733C13.1602 14.8816 13.1228 14.8816 13.0729 14.8816C12.9566 14.8816 12.8403 14.865 12.724 14.8276L12.7157 14.8152C12.3004 14.6989 11.6109 14.4081 10.4644 13.7726C9.71678 13.3614 9.09788 12.9419 8.57037 12.5223C8.29207 12.3022 8.00962 12.0571 7.71886 11.7664C7.71056 11.7581 7.6981 11.7456 7.68979 11.7373C7.68148 11.729 7.66902 11.7165 7.66071 11.7082C7.65241 11.6999 7.63994 11.6875 7.63164 11.6791C7.62333 11.6708 7.61087 11.6584 7.60256 11.6501C7.31596 11.3593 7.06674 11.0769 6.84659 10.7986C6.42707 10.2752 6.00755 9.65215 5.59634 8.90449C4.96082 7.75392 4.67007 7.06441 4.55376 6.6532L4.5413 6.64489C4.50392 6.52859 4.4873 6.41228 4.4873 6.29598C4.4873 6.24614 4.4873 6.20875 4.49561 6.17553C4.52884 5.90554 4.66176 5.63555 4.89021 5.35725C4.89021 5.3531 4.89436 5.3531 4.89436 5.34894C5.20174 5.00834 5.53403 4.74251 5.88709 4.54313C5.88709 4.54313 5.89125 4.54313 5.8954 4.54313C6.26923 4.34791 6.62229 4.41437 6.86736 4.70097C6.86736 4.70097 7.36996 5.30325 7.58595 5.59816C7.78948 5.87646 8.06362 6.31675 8.20069 6.56182C8.44576 7.00211 8.29207 7.45486 8.05116 7.64177L7.56518 8.02806C7.32011 8.22744 7.35334 8.59712 7.35334 8.59712C7.35334 8.59712 8.07193 11.3302 10.7718 12.0156Z" fill="white"/>
</svg>
