<svg width="20" height="20" viewBox="0 0 20 20" fill="none" xmlns="http://www.w3.org/2000/svg">
<path d="M17.1135 3.66563C15.3589 1.85942 12.9334 0.878906 10.4563 0.878906C5.19248 0.878906 0.960786 5.1622 1.01239 10.3744C1.01239 12.0258 1.47685 13.6256 2.25093 15.0705L0.90918 19.9731L5.91496 18.683C7.30832 19.4571 8.8565 19.8183 10.4047 19.8183C15.6169 19.8183 19.8486 15.535 19.8486 10.3228C19.8486 7.79411 18.8681 5.42023 17.1135 3.66563ZM10.4563 18.2185C9.06292 18.2185 7.66956 17.8573 6.48262 17.1348L6.17299 16.98L3.17984 17.7541L3.95393 14.8125L3.74751 14.5029C1.47685 10.8389 2.56057 5.9879 6.2762 3.71723C9.99183 1.44657 14.7912 2.5303 17.0618 6.24593C19.3325 9.96156 18.2488 14.7609 14.5332 17.0316C13.3462 17.8057 11.9013 18.2185 10.4563 18.2185ZM14.9976 12.4903L14.4299 12.2322C14.4299 12.2322 13.6042 11.871 13.0882 11.6129C13.0366 11.6129 12.985 11.5613 12.9334 11.5613C12.7786 11.5613 12.6753 11.6129 12.5721 11.6646C12.5721 11.6646 12.5205 11.7162 11.798 12.5419C11.7464 12.6451 11.6432 12.6967 11.54 12.6967H11.4884C11.4368 12.6967 11.3336 12.6451 11.282 12.5935L11.0239 12.4903C10.4563 12.2322 9.94022 11.9226 9.52738 11.5097C9.42416 11.4065 9.26935 11.3033 9.16613 11.2001C8.80489 10.8389 8.44365 10.426 8.18562 9.96156L8.13402 9.85835C8.08241 9.80674 8.08241 9.75513 8.0308 9.65192C8.0308 9.54871 8.0308 9.4455 8.08241 9.39389C8.08241 9.39389 8.28883 9.13586 8.44365 8.98104C8.54686 8.87783 8.59847 8.72301 8.70168 8.6198C8.80489 8.46498 8.8565 8.25856 8.80489 8.10374C8.75329 7.84571 8.13402 6.45235 7.9792 6.14272C7.87599 5.9879 7.77277 5.93629 7.61796 5.88469H7.46314C7.35993 5.88469 7.20511 5.88469 7.05029 5.88469C6.94708 5.88469 6.84387 5.93629 6.74065 5.93629L6.68905 5.9879C6.58584 6.0395 6.48262 6.14272 6.37941 6.19432C6.2762 6.29753 6.22459 6.40075 6.12138 6.50396C5.76014 6.96841 5.55372 7.53608 5.55372 8.10374C5.55372 8.51659 5.65693 8.92944 5.81175 9.29068L5.86335 9.4455C6.32781 10.426 6.94708 11.3033 7.77277 12.0774L7.9792 12.2838C8.13402 12.4386 8.28883 12.5419 8.39205 12.6967C9.47577 13.6256 10.7143 14.2965 12.1077 14.6577C12.2625 14.7093 12.4689 14.7093 12.6237 14.7609C12.7786 14.7609 12.985 14.7609 13.1398 14.7609C13.3978 14.7609 13.7075 14.6577 13.9139 14.5545C14.0687 14.4513 14.1719 14.4513 14.2751 14.3481L14.3783 14.2449C14.4816 14.1416 14.5848 14.09 14.688 13.9868C14.7912 13.8836 14.8944 13.7804 14.946 13.6772C15.0492 13.4708 15.1008 13.2127 15.1524 12.9547C15.1524 12.8515 15.1524 12.6967 15.1524 12.5935C15.1524 12.5935 15.1008 12.5419 14.9976 12.4903Z" fill="white"/>
</svg>
